<?xml version="1.0" encoding="utf-8"?>
<!-- Generator: Adobe Illustrator 16.0.4, SVG Export Plug-In . SVG Version: 6.00 Build 0)  -->
<!DOCTYPE svg PUBLIC "-//W3C//DTD SVG 1.1//EN" "http://www.w3.org/Graphics/SVG/1.1/DTD/svg11.dtd">
<svg version="1.1" id="Layer_1" xmlns="http://www.w3.org/2000/svg" xmlns:xlink="http://www.w3.org/1999/xlink" x="0px" y="0px"
	 width="56.693px" height="56.693px" viewBox="0 0 56.693 56.693" enable-background="new 0 0 56.693 56.693" xml:space="preserve">
<g>
	<g>
		<path d="M28.346,4.065c-9.698,0-17.588,7.89-17.588,17.588c0,12.036,15.739,29.706,16.409,30.45c0.63,0.701,1.729,0.701,2.357,0
			c0.67-0.744,16.409-18.414,16.409-30.45C45.934,11.954,38.045,4.065,28.346,4.065z M28.346,30.501
			c-4.88,0-8.849-3.969-8.849-8.848s3.969-8.849,8.849-8.849c4.879,0,8.849,3.971,8.849,8.849
			C37.195,26.532,33.225,30.501,28.346,30.501z"/>
	</g>
</g>
</svg>
