<?xml version="1.0" encoding="utf-8"?>
<!-- Generator: Adobe Illustrator 16.0.4, SVG Export Plug-In . SVG Version: 6.00 Build 0)  -->
<!DOCTYPE svg PUBLIC "-//W3C//DTD SVG 1.1//EN" "http://www.w3.org/Graphics/SVG/1.1/DTD/svg11.dtd">
<svg version="1.1" id="Layer_1" xmlns="http://www.w3.org/2000/svg" xmlns:xlink="http://www.w3.org/1999/xlink" x="0px" y="0px"
	 width="56.693px" height="56.693px" viewBox="0 0 56.693 56.693" enable-background="new 0 0 56.693 56.693" xml:space="preserve">
<g>
	<path d="M50.788,9.565c-0.895-0.896-1.973-1.344-3.229-1.344H9.137c-1.259,0-2.335,0.448-3.23,1.344
		c-0.896,0.896-1.344,1.972-1.344,3.23v31.102c0,1.259,0.447,2.335,1.344,3.23c0.896,0.896,1.973,1.344,3.23,1.344h38.42
		c1.258,0,2.334-0.447,3.23-1.344c0.896-0.896,1.342-1.974,1.342-3.23V12.796C52.132,11.537,51.684,10.461,50.788,9.565z
		 M19.2,43.897c0,0.268-0.087,0.485-0.259,0.658c-0.171,0.171-0.391,0.256-0.656,0.256H9.137c-0.268,0-0.486-0.085-0.657-0.256
		c-0.172-0.173-0.257-0.392-0.257-0.658v-5.488c0-0.269,0.085-0.486,0.257-0.657c0.171-0.173,0.391-0.257,0.657-0.257h9.147
		c0.267,0,0.486,0.084,0.657,0.257c0.171,0.171,0.258,0.39,0.258,0.657L19.2,43.897L19.2,43.897z M19.2,32.921
		c0,0.268-0.087,0.485-0.259,0.656c-0.171,0.172-0.391,0.258-0.656,0.258H9.137c-0.268,0-0.486-0.086-0.657-0.258
		c-0.172-0.171-0.257-0.39-0.257-0.656v-5.487c0-0.269,0.085-0.487,0.257-0.658c0.171-0.171,0.391-0.257,0.657-0.257h9.147
		c0.267,0,0.485,0.085,0.657,0.257c0.171,0.17,0.258,0.39,0.258,0.658L19.2,32.921L19.2,32.921z M19.2,21.943
		c0,0.268-0.087,0.485-0.259,0.658c-0.171,0.172-0.391,0.258-0.656,0.258H9.137c-0.268,0-0.486-0.086-0.657-0.258
		c-0.172-0.172-0.257-0.391-0.257-0.658v-5.488c0-0.268,0.085-0.485,0.257-0.658c0.171-0.172,0.391-0.257,0.657-0.257h9.147
		c0.267,0,0.485,0.085,0.657,0.256c0.171,0.173,0.258,0.392,0.258,0.658L19.2,21.943L19.2,21.943z M33.837,43.897
		c0,0.268-0.084,0.485-0.256,0.658c-0.174,0.171-0.393,0.256-0.658,0.256h-9.148c-0.269,0-0.486-0.085-0.658-0.256
		c-0.172-0.173-0.257-0.392-0.257-0.658v-5.488c0-0.269,0.085-0.486,0.257-0.657c0.172-0.173,0.391-0.257,0.658-0.257h9.148
		c0.268,0,0.484,0.084,0.656,0.257c0.17,0.171,0.258,0.39,0.258,0.657V43.897L33.837,43.897L33.837,43.897z M33.837,32.921
		c0,0.268-0.084,0.485-0.256,0.656c-0.174,0.172-0.393,0.258-0.658,0.258h-9.148c-0.269,0-0.486-0.086-0.658-0.258
		c-0.172-0.171-0.257-0.39-0.257-0.656v-5.487c0-0.269,0.085-0.487,0.257-0.658s0.391-0.257,0.658-0.257h9.148
		c0.268,0,0.484,0.085,0.656,0.257c0.17,0.17,0.258,0.39,0.258,0.658V32.921L33.837,32.921z M33.837,21.943
		c0,0.268-0.084,0.485-0.256,0.658c-0.174,0.172-0.393,0.258-0.658,0.258h-9.148c-0.269,0-0.486-0.086-0.658-0.258
		s-0.257-0.391-0.257-0.658v-5.488c0-0.268,0.085-0.485,0.257-0.658c0.172-0.171,0.391-0.256,0.658-0.256h9.148
		c0.268,0,0.484,0.085,0.656,0.256c0.17,0.173,0.258,0.392,0.258,0.658V21.943L33.837,21.943z M48.473,43.897
		c0,0.268-0.086,0.485-0.26,0.658c-0.172,0.171-0.391,0.256-0.656,0.256h-9.146c-0.268,0-0.486-0.085-0.658-0.256
		c-0.17-0.173-0.256-0.392-0.256-0.658v-5.488c0-0.269,0.086-0.486,0.256-0.657c0.172-0.173,0.391-0.257,0.658-0.257h9.146
		c0.268,0,0.484,0.084,0.656,0.257c0.174,0.171,0.26,0.39,0.26,0.657V43.897z M48.473,32.921c0,0.268-0.086,0.485-0.26,0.656
		c-0.172,0.172-0.391,0.258-0.656,0.258h-9.146c-0.268,0-0.486-0.086-0.658-0.258c-0.17-0.171-0.256-0.39-0.256-0.656v-5.487
		c0-0.269,0.086-0.487,0.256-0.658c0.172-0.171,0.391-0.257,0.658-0.257h9.146c0.268,0,0.484,0.085,0.656,0.257
		c0.174,0.17,0.26,0.39,0.26,0.658V32.921z M48.473,21.943c0,0.268-0.086,0.485-0.26,0.658c-0.172,0.172-0.391,0.258-0.656,0.258
		h-9.146c-0.268,0-0.486-0.086-0.658-0.258c-0.17-0.172-0.256-0.391-0.256-0.658v-5.488c0-0.268,0.086-0.485,0.256-0.658
		c0.172-0.171,0.391-0.256,0.658-0.256h9.146c0.268,0,0.484,0.085,0.656,0.256c0.174,0.173,0.26,0.392,0.26,0.658V21.943z"/>
</g>
</svg>
